# xmcd
#
# Track frame offsets:
# 150
# 17705
# 31811
# 46701
# 64099
# 80557
# 96388
# 112375
# 126952
# 143723
# 159710
#
# Disc length: 2342 seconds
#
#
# Revision: 0
# Processed by: cddbd v1.5.1PL2 Copyright (c) Steve Scherf et al.
# Submitted via: CDLP Version 5
#
DISCID=9509240b
DTITLE=近藤真彦 - THE BEST (Disc1)
DYEAR=1900
DGENRE=Misc
TTITLE0=スニーカーぶる〜す
TTITLE1=ヨコハマ・チーク
TTITLE2=ブルージーンズメモリー
TTITLE3=ギンギラギンにさりげなく
TTITLE4=情熱☆熱風 せれなーで
TTITLE5=ふられてBANZAI
TTITLE6=ハイティーン・ブギ
TTITLE7=ホレたぜ!乾杯
TTITLE8=ミッドナイト・ステーション
TTITLE9=真夏の一秒
TTITLE10=ためいきロ・カ・ビ・リー
EXTD=
EXTT0=
EXTT1=
EXTT2=
EXTT3=
EXTT4=
EXTT5=
EXTT6=
EXTT7=
EXTT8=
EXTT9=
EXTT10=
PLAYORDER=
